<?xml version="1.0" ?>
<!-- Uploaded to: SVG Repo, www.svgrepo.com, Generator: SVG Repo Mixer Tools -->
<svg width="800px" height="800px" viewBox="0 0 64 64" xmlns="http://www.w3.org/2000/svg">
<defs>
<style>.cls-1{fill:#efc89d;}.cls-2{fill:#748a95;}.cls-3{fill:#ebb87f;}.cls-4{fill:#617880;}.cls-5{fill:#252b48;}</style>
</defs>
<g data-name="Cupboard" id="Cupboard-5">
<path class="cls-1" d="M50,17.72H14.05V54a2,2,0,0,0,2,2H48a2,2,0,0,0,2-2Z" id="path28941-3-0"/>
<path class="cls-2" d="M16.05,8a2,2,0,0,0-2,2v7.72H50V10a2,2,0,0,0-2-2Z" id="path70006"/>
<path class="cls-2" d="M26.6,31.28a1.66,1.66,0,0,1,1.66,1.66v4.47a1.66,1.66,0,1,1-3.31,0V32.94A1.65,1.65,0,0,1,26.6,31.28Z" id="path28957-7-23"/>
<path class="cls-2" d="M37.4,31.28a1.66,1.66,0,0,0-1.66,1.66v4.47a1.66,1.66,0,1,0,3.31,0V32.94A1.65,1.65,0,0,0,37.4,31.28Z" id="path30081-3-7"/>
<path class="cls-3" d="M46.12,17.72V54a2,2,0,0,1-2,2H48a2,2,0,0,0,2-2V17.72Z" id="path70520"/>
<path class="cls-4" d="M44.12,8a2,2,0,0,1,2,2v7.72H50V10a2,2,0,0,0-2-2Z" id="path70522"/>
<path class="cls-5" d="M16.05,57H48a3,3,0,0,0,3-3V10a3,3,0,0,0-3-3H16.05a3,3,0,0,0-3,3V54A3,3,0,0,0,16.05,57Zm-1-3V18.72H31V55H16.05A1,1,0,0,1,15.05,54ZM48,55H33V18.72H49V54A1,1,0,0,1,48,55ZM16.05,9H48a1,1,0,0,1,1,1v6.72H15.05V10A1,1,0,0,1,16.05,9Z"/>
<circle class="cls-5" cx="26.6" cy="43.47" r="1.25"/>
<path class="cls-5" d="M26.6,30.28A2.66,2.66,0,0,0,24,32.94v4.47a2.66,2.66,0,1,0,5.31,0V32.94A2.66,2.66,0,0,0,26.6,30.28Zm.66,7.13a.66.66,0,1,1-1.31,0V32.94a.66.66,0,1,1,1.31,0Z"/>
<circle class="cls-5" cx="37.4" cy="43.47" r="1.25"/>
<path class="cls-5" d="M37.4,30.28a2.66,2.66,0,0,0-2.66,2.66v4.47a2.66,2.66,0,1,0,5.31,0V32.94A2.66,2.66,0,0,0,37.4,30.28Zm.65,7.13a.66.66,0,1,1-1.31,0V32.94a.66.66,0,1,1,1.31,0Z"/>
<path class="cls-5" d="M19.06,13.89H44.94a1,1,0,0,0,0-2H19.06a1,1,0,0,0,0,2Z"/>
</g>
</svg>